<?xml version="1.0" encoding="UTF-8" standalone="no"?>
<svg
   xmlns:dc="http://purl.org/dc/elements/1.1/"
   xmlns:cc="http://creativecommons.org/ns#"
   xmlns:rdf="http://www.w3.org/1999/02/22-rdf-syntax-ns#"
   xmlns:svg="http://www.w3.org/2000/svg"
   xmlns="http://www.w3.org/2000/svg"
   xmlns:xlink="http://www.w3.org/1999/xlink"
   xmlns:sodipodi="http://sodipodi.sourceforge.net/DTD/sodipodi-0.dtd"
   xmlns:inkscape="http://www.inkscape.org/namespaces/inkscape"
   viewBox="0 0 793.7007874015749 1122.5196850393702"
   width="793.7007874015749"
   height="1122.5196850393702"
   version="1.1"
   id="svg3180"
   sodipodi:docname="main.svg"
   inkscape:version="1.0.2 (e86c870879, 2021-01-15)">
  <metadata
     id="metadata3184">
    <rdf:RDF>
      <cc:Work
         rdf:about="">
        <dc:format>image/svg+xml</dc:format>
        <dc:type
           rdf:resource="http://purl.org/dc/dcmitype/StillImage" />
        <dc:title></dc:title>
      </cc:Work>
    </rdf:RDF>
  </metadata>
  <sodipodi:namedview
     pagecolor="#ffffff"
     bordercolor="#666666"
     borderopacity="1"
     objecttolerance="10"
     gridtolerance="10"
     guidetolerance="10"
     inkscape:pageopacity="0"
     inkscape:pageshadow="2"
     inkscape:window-width="1138"
     inkscape:window-height="857"
     id="namedview3182"
     showgrid="false"
     inkscape:zoom="0.63496762"
     inkscape:cx="323.27991"
     inkscape:cy="312.73297"
     inkscape:window-x="322"
     inkscape:window-y="156"
     inkscape:window-maximized="0"
     inkscape:current-layer="layer2" />
  <defs
     id="defs3084">
    <rect
       x="155.31908"
       y="702.92045"
       width="403.08029"
       height="266.37533"
       id="rect3830" />
    <rect
       x="168.13395"
       y="213.29294"
       width="346.04791"
       height="223.21873"
       id="rect3824" />
    <marker
       id="DistanceX"
       orient="auto"
       refX="0.0"
       refY="0.0"
       style="overflow:visible">
      <path
         d="M 3,-3 L -3,3 M 0,-5 L  0,5"
         style="stroke:#000000; stroke-width:0.5"
         id="path3072" />
    </marker>
    <pattern
       id="Hatch"
       patternUnits="userSpaceOnUse"
       width="8"
       height="8"
       x="0"
       y="0">
      <path
         d="M8 4 l-4,4"
         stroke="#000000"
         stroke-width="0.25"
         linecap="square"
         id="path3075" />
      <path
         d="M6 2 l-4,4"
         stroke="#000000"
         stroke-width="0.25"
         linecap="square"
         id="path3077" />
      <path
         d="M4 0 l-4,4"
         stroke="#000000"
         stroke-width="0.25"
         linecap="square"
         id="path3079" />
    </pattern>
    <symbol
       id="*Model_Space" />
    <symbol
       id="*Paper_Space" />
    <filter
       inkscape:collect="always"
       style="color-interpolation-filters:sRGB"
       id="filter3818"
       x="-0.0002734727"
       width="1.0005469"
       y="-0.00016115358"
       height="1.0003223">
      <feGaussianBlur
         inkscape:collect="always"
         stdDeviation="0.0071059838"
         id="feGaussianBlur3820" />
    </filter>
  </defs>
  <g
     inkscape:groupmode="layer"
     inkscape:label="0"
     id="g3102"
     style="display:inline;filter:url(#filter3818)">
    <path
       d="m 332.38961,434.65531 h 140.91432 c 28.67233,0 51.91582,-23.2434 51.91582,-51.91563 V 71.244722 c 0,-28.67229 -23.24349,-51.91582 -51.91582,-51.91582 H 332.38961 c -28.6723,0 -51.91581,23.24353 -51.9158,51.91582 V 382.73968 c 0,28.67223 23.2435,51.91563 51.9158,51.91563 z"
       style="fill:#0000ff;fill-opacity:1;stroke:none;stroke-width:0.784917;stroke-linecap:round;stroke-miterlimit:4;stroke-dasharray:none"
       id="path3086"
       sodipodi:nodetypes="ccccccccc" />
  </g>
  <g
     inkscape:groupmode="layer"
     inkscape:label="1"
     id="g3136"
     style="display:inline">
    <path
       d="m 502.97013,382.73968 v -88.99866 c 0,-16.38417 -13.28202,-29.66615 -29.6662,-29.66615 H 332.38961 c -16.38417,0 -29.66616,13.28198 -29.66617,29.66615 v 88.99866 c 1.1e-4,16.38403 13.28208,29.66593 29.66617,29.66593 h 140.91432 c 16.3841,0 29.66608,-13.2819 29.6662,-29.66593 z"
       style="fill:#ffffff;fill-opacity:1;stroke:none;stroke-width:3.92459;stroke-linecap:round;stroke-opacity:1"
       id="path3120"
       sodipodi:nodetypes="ccccccccc" />
    <path
       d="M 502.97013,160.24323 V 71.244722 c 0,-16.38417 -13.28202,-29.66615 -29.6662,-29.66615 H 332.38961 c -16.38417,0 -29.66616,13.28198 -29.66617,29.66615 v 88.998508 c -2e-5,16.38417 13.28198,29.6662 29.66617,29.6662 h 140.91432 c 16.38418,0 29.6662,-13.28203 29.6662,-29.6662 z"
       style="fill:#ffffff;fill-opacity:1;stroke:none;stroke-width:3.92459;stroke-linecap:round;stroke-opacity:1"
       id="path3126"
       sodipodi:nodetypes="ccccccccc" />
  </g>
  <g
     inkscape:groupmode="layer"
     inkscape:label="2"
     id="g3170"
     style="display:inline">
    <a
       id="a4713"
       xlink:href=""
       transform="translate(208.66278,-602.82499)">
      <path
         d="m 279.47425,674.06971 c 0,-8.1921 -6.64099,-14.83309 -14.8331,-14.83309 H 123.72683 c -8.19209,0 -14.83309,6.64099 -14.83309,14.83309 v 88.99851 c 0,8.1921 6.641,14.8331 14.83309,14.8331 h 140.91432 c 8.19211,0 14.8331,-6.641 14.8331,-14.8331 z"
         style="opacity:0.989;fill:#09ff00;fill-opacity:1;stroke:#000000;stroke-width:1.17738;stroke-linecap:round;stroke-miterlimit:4;stroke-dasharray:none;stroke-opacity:1"
         id="path3148"
         sodipodi:nodetypes="ccccccccc"
         onclick="" />
    </a>
    <a
       id="a4716"
       xlink:href=""
       transform="translate(208.66278,-602.82499)">
      <path
         d="m 123.72683,881.73296 c -8.19208,0 -14.83307,6.64099 -14.83309,14.83305 v 88.99866 c 6e-5,8.19219 6.64105,14.83303 14.83309,14.83303 h 140.91432 c 8.19207,0 14.83302,-6.64084 14.8331,-14.83303 v -88.99866 c 0,-8.19206 -6.64103,-14.83305 -14.8331,-14.83305 z"
         style="fill:#ff0000;fill-opacity:1;stroke:#000000;stroke-width:0.784917;stroke-linecap:round;stroke-miterlimit:4;stroke-dasharray:none;stroke-opacity:1"
         id="path3160"
         sodipodi:nodetypes="ccccccccc"
         onclick="" />
    </a>
  </g>
  <g
     inkscape:groupmode="layer"
     id="layer1"
     inkscape:label="3"
     style="display:inline">
    <g
       aria-label="ON"
       transform="matrix(0.45056852,0,0,0.45056852,265.54197,-35.868091)"
       id="text3822"
       style="font-style:normal;font-variant:normal;font-weight:normal;font-stretch:normal;font-size:192px;line-height:125%;font-family:FreeSerif;-inkscape-font-specification:FreeSerif;letter-spacing:0px;word-spacing:0px;white-space:pre;shape-inside:url(#rect3824);display:inline;fill:#000000;fill-opacity:1;stroke:none;stroke-width:1px;stroke-linecap:butt;stroke-linejoin:miter;stroke-opacity:1">
      <path
         d="m 236.48677,393.58097 q -25.92,0 -43.776,-18.24 -17.856,-18.432 -17.856,-48 0,-28.992 17.664,-47.616 17.664,-18.624 45.12,-18.624 27.648,0 45.12,18.624 17.664,18.432 17.664,48.384 0,28.992 -17.856,47.232 -17.664,18.24 -46.08,18.24 z m 42.048,-65.664 q 0,-13.824 -2.688,-24.576 -2.688,-10.752 -6.912,-17.28 -4.032,-6.528 -9.6,-10.752 -5.568,-4.224 -10.944,-5.76 -5.184,-1.536 -10.752,-1.536 -9.408,0 -16.896,4.032 -7.488,4.032 -11.904,10.176 -4.224,5.952 -7.104,14.208 -2.88,8.256 -4.032,15.936 -0.96,7.488 -0.96,15.36 0,9.792 1.92,19.2 1.92,9.408 6.144,18.816 4.224,9.408 12.48,15.168 8.448,5.76 19.968,5.76 11.712,0 20.16,-5.76 8.64,-5.76 12.864,-15.168 4.416,-9.408 6.336,-18.816 1.92,-9.408 1.92,-19.008 z"
         style="font-style:normal;font-variant:normal;font-weight:normal;font-stretch:normal;font-size:192px;font-family:FreeSerif;-inkscape-font-specification:FreeSerif;fill:#000000;fill-opacity:1;stroke:none"
         id="path3852" />
      <path
         d="m 443.46258,267.43697 q -5.376,0.576 -8.064,1.344 -2.496,0.576 -5.376,2.88 -2.688,2.304 -3.84,7.296 -0.96,4.8 -0.96,13.056 v 100.992 h -3.264 l -84.864,-105.6 v 75.264 q 0,14.592 3.456,19.392 3.456,4.608 14.592,5.184 v 3.648 h -45.12 v -3.648 q 11.904,-0.768 15.168,-5.184 3.456,-4.608 3.456,-19.392 v -84.672 q -5.76,-6.72 -9.216,-8.64 -3.264,-1.92 -9.408,-1.92 v -3.648 h 32.832 l 73.92,92.928 v -64.704 q 0,-14.592 -3.648,-19.008 -3.456,-4.608 -14.784,-5.568 v -3.648 h 45.12 z"
         style="font-style:normal;font-variant:normal;font-weight:normal;font-stretch:normal;font-size:192px;font-family:FreeSerif;-inkscape-font-specification:FreeSerif;fill:#000000;fill-opacity:1;stroke:none"
         id="path3854" />
    </g>
    <g
       aria-label="OFF"
       transform="matrix(0.45056852,0,0,0.45056852,252.37558,-28.543088)"
       id="text3828"
       style="font-size:192px;line-height:125%;font-family:'Times New Roman';-inkscape-font-specification:'Times New Roman, ';letter-spacing:0px;word-spacing:0px;white-space:pre;shape-inside:url(#rect3830);display:inline;fill:none;stroke:#000000;stroke-width:1px;stroke-linecap:butt;stroke-linejoin:miter;stroke-opacity:1">
      <path
         d="m 223.67036,883.20792 q -25.92,0 -43.776,-18.24 -17.856,-18.432 -17.856,-48 0,-28.992 17.664,-47.616 17.664,-18.624 45.12,-18.624 27.648,0 45.12,18.624 17.664,18.432 17.664,48.384 0,28.992 -17.856,47.232 -17.664,18.24 -46.08,18.24 z m 42.048,-65.664 q 0,-13.824 -2.688,-24.576 -2.688,-10.752 -6.912,-17.28 -4.032,-6.528 -9.6,-10.752 -5.568,-4.224 -10.944,-5.76 -5.184,-1.536 -10.752,-1.536 -9.408,0 -16.896,4.032 -7.488,4.032 -11.904,10.176 -4.224,5.952 -7.104,14.208 -2.88,8.256 -4.032,15.936 -0.96,7.488 -0.96,15.36 0,9.792 1.92,19.2 1.92,9.408 6.144,18.816 4.224,9.408 12.48,15.168 8.448,5.76 19.968,5.76 11.712,0 20.16,-5.76 8.64,-5.76 12.864,-15.168 4.416,-9.408 6.336,-18.816 1.92,-9.408 1.92,-19.008 z"
         style="font-style:normal;font-variant:normal;font-weight:normal;font-stretch:normal;font-size:192px;font-family:FreeSerif;-inkscape-font-specification:FreeSerif;fill:#000000;fill-opacity:1;stroke:none"
         id="path3857" />
      <path
         d="m 386.87017,836.16792 h -4.416 q -1.728,-11.712 -5.568,-14.976 -3.84,-3.456 -15.552,-3.456 h -27.84 v 39.936 q 0,11.712 3.072,15.168 3.264,3.456 14.4,4.032 v 3.648 h -53.76 v -3.648 q 10.944,-0.768 13.824,-4.032 2.88,-3.456 2.88,-15.36 v -83.136 q 0,-10.176 -3.072,-13.248 -3.072,-3.264 -13.632,-4.032 v -3.648 h 101.952 l 0.576,27.456 h -4.8 q -2.496,-12.864 -7.68,-16.512 -5.184,-3.648 -21.504,-3.648 h -26.112 q -3.84,0 -4.992,1.344 -1.152,1.152 -1.152,5.184 v 42.624 h 27.84 q 11.52,0 15.36,-3.264 4.032,-3.456 5.76,-14.976 h 4.416 z"
         style="font-style:normal;font-variant:normal;font-weight:normal;font-stretch:normal;font-size:192px;font-family:FreeSerif;-inkscape-font-specification:FreeSerif;fill:#000000;fill-opacity:1;stroke:none"
         id="path3859" />
      <path
         d="m 495.15801,836.16792 h -4.416 q -1.728,-11.712 -5.568,-14.976 -3.84,-3.456 -15.552,-3.456 h -27.84 v 39.936 q 0,11.712 3.072,15.168 3.264,3.456 14.4,4.032 v 3.648 h -53.76 v -3.648 q 10.944,-0.768 13.824,-4.032 2.88,-3.456 2.88,-15.36 v -83.136 q 0,-10.176 -3.072,-13.248 -3.072,-3.264 -13.632,-4.032 v -3.648 h 101.952 l 0.576,27.456 h -4.8 q -2.496,-12.864 -7.68,-16.512 -5.184,-3.648 -21.504,-3.648 h -26.112 q -3.84,0 -4.992,1.344 -1.152,1.152 -1.152,5.184 v 42.624 h 27.84 q 11.52,0 15.36,-3.264 4.032,-3.456 5.76,-14.976 h 4.416 z"
         style="font-style:normal;font-variant:normal;font-weight:normal;font-stretch:normal;font-size:192px;font-family:FreeSerif;-inkscape-font-specification:FreeSerif;fill:#000000;fill-opacity:1;stroke:none"
         id="path3861" />
    </g>
  </g>
  <g
     inkscape:groupmode="layer"
     id="layer2"
     inkscape:label="4"
     style="display:inline;opacity:0;mix-blend-mode:normal">
    <a
       xlink:href="?C=1"
       id="a4932">
      <path
         d="m 502.97013,382.73968 v -88.99866 c 0,-16.38417 -13.28202,-29.66615 -29.6662,-29.66615 H 332.38961 c -16.38417,0 -29.66616,13.28198 -29.66617,29.66615 v 88.99866 c 1.1e-4,16.38403 13.28208,29.66593 29.66617,29.66593 h 140.91432 c 16.3841,0 29.66608,-13.2819 29.6662,-29.66593 z"
         style="display:inline;fill:#ffffff;fill-opacity:1;stroke:none;stroke-width:3.92459;stroke-linecap:round;stroke-opacity:1"
         id="path3120-5"
         sodipodi:nodetypes="ccccccccc" />
    </a>
    <a
       xlink:href="?C=0"
       id="a4929">
      <path
         d="M 502.97013,160.24323 V 71.24472 c 0,-16.384173 -13.28202,-29.666153 -29.6662,-29.666153 H 332.38961 c -16.38417,0 -29.66616,13.28198 -29.66617,29.666153 v 88.9985 c -2e-5,16.38417 13.28198,29.6662 29.66617,29.6662 h 140.91432 c 16.38418,0 29.6662,-13.28203 29.6662,-29.66619 z"
         style="display:inline;fill:#ffffff;fill-opacity:1;stroke:none;stroke-width:3.92459;stroke-linecap:round;stroke-opacity:1"
         id="path3126-4"
         sodipodi:nodetypes="ccccccccc" />
    </a>
  </g>
  <desc
     id="desc3178">main.dxf - scale = 1.000000, origin = (0.000000, 0.000000), method = manual</desc>
</svg>
